<svg id="Camada_1" data-name="Camada 1" xmlns="http://www.w3.org/2000/svg" viewBox="0 0 1549.38 297.72"><defs><style>.cls-1{stroke:#000;stroke-miterlimit:10;stroke-width:5px;}</style></defs><path d="M45.45,0H297.73V252.27a45.45,45.45,0,0,1-45.45,45.45H45.45A45.45,45.45,0,0,1,0,252.27V45.45A45.45,45.45,0,0,1,45.45,0Z"/><path class="cls-1" d="M568.81,238.08,502,148.5l-28,30.05v59.53H446.69V40.85H474V142.38L566.3,40.85h35.89l-82.07,87.9L603.3,238.08Z"/><path class="cls-1" d="M692.59,104.27h27L754.35,205l29.49-100.7h27.54L768,238.08H741L705.39,136.26,670.62,238.08H643.08l-44-133.81h28.65l30,100.7Z"/><path class="cls-1" d="M929,192.18,951.58,200a59.31,59.31,0,0,1-21.7,30.46Q914,242.25,891.49,242.25q-28.1,0-47.71-19.33t-19.61-52.16q0-30.6,18.92-50.63t45.06-20q30.32,0,47.29,19.06t17,51a51.85,51.85,0,0,1-.56,8.35H851.16q.27,17.81,11.82,29.2t28.51,11.41Q920.14,219.17,929,192.18ZM852,157.4h73.16q-.55-15-10-24.61t-26.71-9.6q-15.59,0-25.59,10.15A36.4,36.4,0,0,0,852,157.4Z"/><path class="cls-1" d="M1011.94,160.74v77.34H985.79V104.27h25.59v19.2q13.35-23.09,41.17-23.09,23.09,0,35.47,14.74t12.38,38.11v84.85h-26.15v-80.4q0-33.65-31.15-33.66-14.76,0-22.95,10.44T1011.94,160.74Z"/><path class="cls-1" d="M1133.78,202.19q0-17.25,11.13-27.68t29.48-12.93l36.17-5.29q10.28-1.38,10.29-10,0-10.57-7.23-17.25t-21.7-6.68q-13.35,0-21.14,7.38t-9.18,19.61l-25-5.84q2-19.2,17.53-31.3t37.27-12.1q28.38,0,42,13.77t13.6,35.18v67a133.88,133.88,0,0,0,1.67,22h-25.6a109.57,109.57,0,0,1-1.39-18.09q-5.57,8.91-16.27,15.58t-26.84,6.68q-19.75,0-32.27-11.82T1133.78,202.19Zm48.4,18.08q17.53,0,28.1-9.46t10.57-30v-6.12L1180,180.77q-8.91,1.39-14.19,6.4t-5.29,13.63a18.46,18.46,0,0,0,6,13.63Q1172.45,220.28,1182.18,220.27Z"/><path class="cls-1" d="M1407.5,104.27l-57,56.47,58.14,77.34h-32.83l-43.67-59-18.64,18.64v40.34h-25.87V36.68h25.87V163.52l57.86-59.25Z"/><path class="cls-1" d="M1520.44,221.94a34.19,34.19,0,0,1-16.13,15.16,53.76,53.76,0,0,1-23.37,5.15q-22.82,0-36.44-15.16t-13.63-38.53V104.27H1457v80.4q0,15,7.37,24.75t23,9.74q15.57,0,23.64-9.32t8.07-24.9V104.27h26.15V213.32a209.1,209.1,0,0,0,1.39,24.76h-25A92.82,92.82,0,0,1,1520.44,221.94Z"/></svg>